<svg xmlns="http://www.w3.org/2000/svg" xmlns:xlink="http://www.w3.org/1999/xlink" viewBox="0,0,256,256" width="100px" height="100px" fill-rule="nonzero"><g fill="none" fill-rule="nonzero" stroke="none" stroke-width="1" stroke-linecap="butt" stroke-linejoin="miter" stroke-miterlimit="10" stroke-dasharray="" stroke-dashoffset="0" font-family="none" font-weight="none" font-size="none" text-anchor="none" style="mix-blend-mode: normal"><g transform="scale(2.56,2.56)"><path d="M50,17.85c-20.56,0 -37.22,14.39 -37.22,32.15c0,6.36 2.15,12.29 5.84,17.28c-0.89,4.25 -2.63,8.18 -5.04,11.57c-1.09,1.53 0.01,3.68 1.88,3.68c0.02,0 0.03,0 0.05,0c6.51,0 12.52,-1.48 17.39,-3.98c5.12,2.29 10.93,3.59 17.09,3.59c20.56,0 37.22,-14.39 37.22,-32.15c0,-17.76 -16.67,-32.15 -37.22,-32.15z" fill="#cc5de8"></path><circle cx="61" cy="49.5" r="5.5" fill="#ffffff"></circle><circle cx="61" cy="49.5" r="2.5" fill="#4a254b"></circle><circle cx="39" cy="49.5" r="5.5" fill="#ffffff"></circle><circle cx="39" cy="49.5" r="2.5" fill="#4a254b"></circle><path d="M50.05,63.28c-3.94,0 -7.66,-1.2 -9.95,-3.2c-0.42,-0.36 -0.46,-1 -0.09,-1.41c0.36,-0.42 1,-0.46 1.41,-0.09c1.94,1.69 5.16,2.71 8.63,2.71c3.47,0 6.6,-0.98 8.55,-2.63c0.42,-0.36 1.05,-0.3 1.41,0.12c0.36,0.42 0.31,1.05 -0.12,1.41c-2.33,1.98 -5.92,3.11 -9.84,3.11z" fill="#4a254b"></path><g fill="#4a254b"><path d="M39.27,61.6c-0.35,0 -0.69,-0.18 -0.87,-0.51c-0.27,-0.48 -0.1,-1.09 0.38,-1.36c0.5,-0.28 1.17,-0.87 1.42,-1.6c0.18,-0.52 0.75,-0.8 1.27,-0.62c0.52,0.18 0.8,0.75 0.62,1.27c-0.43,1.26 -1.49,2.22 -2.32,2.69c-0.16,0.09 -0.33,0.13 -0.49,0.13z"></path><path d="M60.73,61.6c-0.17,0 -0.34,-0.04 -0.49,-0.13c-0.84,-0.48 -1.89,-1.43 -2.32,-2.69c-0.18,-0.52 0.1,-1.09 0.62,-1.27c0.52,-0.18 1.09,0.1 1.27,0.62c0.25,0.73 0.92,1.32 1.42,1.6c0.48,0.27 0.65,0.88 0.38,1.36c-0.18,0.33 -0.52,0.51 -0.87,0.51z"></path></g></g></g></svg>